<svg width="227" height="44" fill="none" xmlns="http://www.w3.org/2000/svg"><path fill="#0D75FF" fill-opacity=".9" d="M0 11h27v22H0z"/><path fill="#0D75FF" d="M27 0h27v22H27z"/><path fill="#0D75FF" fill-opacity=".8" d="M21 22h27v22H21z"/><path d="M77.524 36.132a5.845 5.845 0 0 1-3.42-1.08c-1.008-.696-1.812-1.704-2.412-3.024-.6-1.344-.9-2.952-.9-4.824 0-1.848.288-3.72.864-5.616a26.546 26.546 0 0 1 2.34-5.436c1.008-1.728 2.148-3.264 3.42-4.608 1.272-1.368 2.604-2.448 3.996-3.24 1.416-.792 2.808-1.188 4.176-1.188.912 0 1.644.192 2.196.576.552.384.948.888 1.188 1.512.24.6.36 1.26.36 1.98 0 .84-.144 1.668-.432 2.484-.288.792-.672 1.452-1.152 1.98-.48.528-1.008.792-1.584.792-.192 0-.396-.06-.612-.18-.192-.12-.36-.336-.504-.648.336-.24.72-.672 1.152-1.296.456-.624.84-1.32 1.152-2.088.336-.768.504-1.476.504-2.124 0-.552-.168-1.008-.504-1.368-.312-.36-.864-.54-1.656-.54-1.032 0-2.112.42-3.24 1.26-1.104.84-2.184 1.968-3.24 3.384-1.032 1.392-1.968 2.952-2.808 4.68a31.538 31.538 0 0 0-2.016 5.292c-.48 1.8-.72 3.504-.72 5.112 0 2.184.456 3.888 1.368 5.112.912 1.248 2.064 1.872 3.456 1.872.936 0 1.824-.348 2.664-1.044.84-.672 1.584-1.548 2.232-2.628a16.34 16.34 0 0 0 1.548-3.564c.408-1.272.66-2.496.756-3.672-.888-.192-1.608-.312-2.16-.36a12.01 12.01 0 0 0-2.556-.072h-1.188c.168-.696.456-1.176.864-1.44.432-.288.96-.432 1.584-.432.672 0 1.368.12 2.088.36.744.216 1.464.456 2.16.72.696.264 1.308.468 1.836.612l-.252 1.152a59.607 59.607 0 0 0-1.116 3.168 32.63 32.63 0 0 0-.684 2.376 24.496 24.496 0 0 0-.324 1.8 16.026 16.026 0 0 0-.072 1.44c0 .48.012.948.036 1.404.048.456.084.924.108 1.404a4.972 4.972 0 0 1-1.044-.612 2.307 2.307 0 0 1-.684-.828 2.9 2.9 0 0 1-.216-1.152c0-.264.012-.528.036-.792.048-.264.12-.552.216-.864a13.245 13.245 0 0 1-2.988 3.024c-1.128.816-2.4 1.224-3.816 1.224Zm18.356-2.196c-.816 0-1.464-.216-1.944-.648-.456-.432-.684-.996-.684-1.692 0-.72.168-1.476.504-2.268.336-.792.66-1.572.972-2.34.336-.792.504-1.5.504-2.124 0-.768-.228-1.332-.684-1.692a13.37 13.37 0 0 0-1.332-1.044 63.602 63.602 0 0 1-1.728 4.032c-.6 1.272-1.092 2.232-1.476 2.88l-.324-.612c.336-.624.768-1.536 1.296-2.736a44.449 44.449 0 0 0 1.62-4.104c-.24-.24-.36-.528-.36-.864 0-.72.204-1.308.612-1.764.408-.456.708-.684.9-.684.264 0 .408.12.432.36.048.216.072.384.072.504s-.072.36-.216.72c-.12.336-.18.54-.18.612 0 .336.18.648.54.936.384.264.816.576 1.296.936.48.336.9.756 1.26 1.26.384.48.576 1.104.576 1.872 0 .72-.156 1.452-.468 2.196a35.34 35.34 0 0 1-.9 2.124c-.288.672-.432 1.26-.432 1.764 0 .432.108.72.324.864.216.144.468.216.756.216.576 0 1.164-.18 1.764-.54a9.383 9.383 0 0 0 1.8-1.368 14.797 14.797 0 0 0 1.548-1.728c.456-.624.792-1.2 1.008-1.728l.468.36c-.456 1.008-1.08 2.004-1.872 2.988-.792.96-1.68 1.752-2.664 2.376-.96.624-1.956.936-2.988.936Zm8.88 0c-.936 0-1.632-.3-2.088-.9-.456-.576-.684-1.284-.684-2.124 0-.552.096-1.248.288-2.088.216-.84.492-1.716.828-2.628.336-.936.72-1.812 1.152-2.628.456-.816.936-1.476 1.44-1.98.504-.528.996-.792 1.476-.792.216 0 .396.072.54.216.168.12.252.312.252.576 0 .288-.192.756-.576 1.404-.36.648-.792 1.392-1.296 2.232-.504.84-.948 1.728-1.332 2.664-.36.912-.54 1.788-.54 2.628 0 .864.144 1.44.432 1.728.288.288.732.432 1.332.432.816 0 1.68-.408 2.592-1.224.936-.816 1.92-2.244 2.952-4.284l.324.36c-.696 2.064-1.704 3.648-3.024 4.752-1.296 1.104-2.652 1.656-4.068 1.656Zm4.32-16.488c-.384 0-.732-.096-1.044-.288-.288-.192-.432-.492-.432-.9 0-.504.288-.936.864-1.296.6-.384 1.188-.576 1.764-.576.36 0 .648.084.864.252.216.168.324.456.324.864 0 .456-.252.9-.756 1.332-.48.408-1.008.612-1.584.612Zm5.624 17.568c-1.152 0-2.112-.384-2.88-1.152-.768-.768-1.152-1.92-1.152-3.456 0-1.2.228-2.364.684-3.492a11.84 11.84 0 0 1 1.872-3.096c.768-.912 1.62-1.632 2.556-2.16.936-.552 1.86-.828 2.772-.828.984 0 1.656.288 2.016.864.36.576.54 1.176.54 1.8 0 .696-.168 1.308-.504 1.836-.312.528-.744.792-1.296.792-.408 0-.756-.18-1.044-.54.36-.192.672-.576.936-1.152.264-.6.396-1.164.396-1.692 0-.288-.06-.504-.18-.648-.096-.168-.3-.252-.612-.252-.648 0-1.32.288-2.016.864-.672.576-1.308 1.32-1.908 2.232a16.14 16.14 0 0 0-1.44 2.88c-.36 1.008-.54 1.956-.54 2.844 0 .744.18 1.428.54 2.052.36.624 1.056.936 2.088.936.96 0 1.92-.264 2.88-.792.984-.528 1.896-1.284 2.736-2.268.84-.984 1.512-2.136 2.016-3.456l.468.36a13.666 13.666 0 0 1-2.268 3.888c-.96 1.128-2.016 2.016-3.168 2.664-1.152.648-2.316.972-3.492.972Zm9.908-.936c-.408 0-.828-.108-1.26-.324-.408-.192-.744-.516-1.008-.972-.288-.456-.432-1.032-.432-1.728 0-.792.192-1.68.576-2.664.384-.984.9-1.956 1.548-2.916a16.088 16.088 0 0 1 2.232-2.7c.84-.84 1.716-1.5 2.628-1.98.912-.504 1.812-.756 2.7-.756.504 0 .888.096 1.152.288.288.168.432.444.432.828 0 .096-.012.18-.036.252 0 .072-.012.156-.036.252a.922.922 0 0 0-.54-.396c-.216-.096-.492-.144-.828-.144-.768 0-1.524.24-2.268.72-.72.456-1.392 1.068-2.016 1.836-.6.744-1.128 1.548-1.584 2.412a15.914 15.914 0 0 0-1.08 2.52c-.24.792-.36 1.464-.36 2.016 0 .528.12.948.36 1.26.24.312.552.468.936.468.648 0 1.428-.408 2.34-1.224.936-.816 1.884-1.968 2.844-3.456s1.824-3.228 2.592-5.22c.528-1.392 1.068-2.808 1.62-4.248.576-1.44 1.152-2.82 1.728-4.14a58.362 58.362 0 0 1 1.656-3.564c.552-1.056 1.068-1.884 1.548-2.484.504-.624.948-.936 1.332-.936.192 0 .36.084.504.252.144.144.216.336.216.576 0 .384-.204 1.044-.612 1.98-.384.912-.9 2.016-1.548 3.312a188.24 188.24 0 0 0-1.98 4.176 133.407 133.407 0 0 0-2.016 4.608 44.16 44.16 0 0 0-1.548 4.536c-.384 1.44-.576 2.76-.576 3.96 0 .672.036 1.176.108 1.512.072.336.312.504.72.504.504 0 1.092-.216 1.764-.648.672-.432 1.344-1.044 2.016-1.836.672-.792 1.26-1.74 1.764-2.844l.432.324a11.826 11.826 0 0 1-1.872 3.312c-.792.96-1.644 1.716-2.556 2.268-.888.576-1.74.864-2.556.864-.888 0-1.512-.3-1.872-.9a3.523 3.523 0 0 1-.504-1.8c0-.408.06-.948.18-1.62.12-.672.288-1.416.504-2.232a27.568 27.568 0 0 1-2.448 3.456c-.864 1.008-1.716 1.8-2.556 2.376-.816.576-1.596.864-2.34.864Zm28.923 2.052c-1.32 0-2.316-.228-2.988-.684-.672-.432-1.008-1.164-1.008-2.196 0-.072.06-.108.18-.108.168 0 .468.06.9.18s1.26.18 2.484.18c2.064 0 3.972-.228 5.724-.684 1.752-.48 3.264-1.128 4.536-1.944 1.296-.816 2.292-1.728 2.988-2.736.72-1.032 1.08-2.088 1.08-3.168 0-.984-.276-1.776-.828-2.376-.552-.6-1.284-1.056-2.196-1.368a12.07 12.07 0 0 0-2.916-.612 27.723 27.723 0 0 0-4.536-.144h-1.296c-.552 1.944-1.092 3.9-1.62 5.868a211.48 211.48 0 0 1-1.62 5.724c-.6 0-1.104-.168-1.512-.504-.408-.336-.612-.744-.612-1.224 0-.288.06-.624.18-1.008l.324-1.044c.144-.48.396-1.284.756-2.412s.792-2.448 1.296-3.96a207.698 207.698 0 0 1 1.728-4.752c.624-1.656 1.26-3.276 1.908-4.86a66.676 66.676 0 0 1 1.944-4.212c-1.008.168-1.86.408-2.556.72-.672.312-1.2.6-1.584.864-.384.24-.66.36-.828.36-.12 0-.276-.048-.468-.144a3.71 3.71 0 0 1-.468-.396c-.144-.168-.216-.312-.216-.432 1.2-.504 2.448-.96 3.744-1.368 1.32-.408 2.916-.612 4.788-.612.792 0 1.668.072 2.628.216.96.12 1.872.384 2.736.792.864.384 1.572.96 2.124 1.728.552.744.828 1.74.828 2.988 0 1.176-.252 2.184-.756 3.024a6.722 6.722 0 0 1-1.98 2.052c-.816.528-1.704.948-2.664 1.26-.96.312-1.908.54-2.844.684 1.776.096 3.204.348 4.284.756 1.104.408 1.932.9 2.484 1.476.576.552.96 1.14 1.152 1.764.192.624.288 1.224.288 1.8 0 1.392-.36 2.652-1.08 3.78-.72 1.128-1.668 2.112-2.844 2.952a18.034 18.034 0 0 1-3.852 2.088 21.462 21.462 0 0 1-4.14 1.26c-1.368.288-2.592.432-3.672.432Zm2.34-16.488a26.886 26.886 0 0 0 3.924-.432c1.32-.264 2.52-.672 3.6-1.224 1.08-.552 1.944-1.272 2.592-2.16.672-.888 1.008-1.992 1.008-3.312 0-1.248-.3-2.208-.9-2.88-.576-.672-1.332-1.14-2.268-1.404a10.44 10.44 0 0 0-2.916-.396h-.36c-.096 0-.204.012-.324.036a45.817 45.817 0 0 0-2.376 5.544 135.621 135.621 0 0 0-1.98 6.228Zm17.367 14.508c-1.032 0-1.764-.324-2.196-.972-.432-.624-.648-1.392-.648-2.304 0-.744.12-1.512.36-2.304.24-.792.552-1.536.936-2.232.408-.696.852-1.26 1.332-1.692.504-.432 1.008-.648 1.512-.648.12 0 .24.024.36.072.144.024.276.06.396.108-.216.192-.48.552-.792 1.08a13.571 13.571 0 0 0-.828 1.764 20.855 20.855 0 0 0-.684 1.944c-.168.648-.252 1.2-.252 1.656 0 .72.12 1.248.36 1.584.24.312.552.468.936.468.504 0 1.104-.264 1.8-.792.696-.552 1.38-1.248 2.052-2.088-.672-.552-1.2-1.272-1.584-2.16a7.493 7.493 0 0 1-.54-2.772c0-.792.132-1.536.396-2.232.288-.696.696-1.248 1.224-1.656.528-.432 1.164-.648 1.908-.648.984 0 1.644.264 1.98.792.336.528.504 1.188.504 1.98 0 .936-.228 1.98-.684 3.132a18.642 18.642 0 0 1-1.728 3.276c.432.24.888.36 1.368.36a4.56 4.56 0 0 0 1.296-.216c.48-.168.948-.444 1.404-.828.48-.384.864-.9 1.152-1.548l.432.36c-.48 1.128-1.164 1.932-2.052 2.412-.864.456-1.692.684-2.484.684-.312 0-.612-.024-.9-.072a4.823 4.823 0 0 1-.828-.288c-.816 1.08-1.716 1.98-2.7 2.7-.96.72-1.896 1.08-2.808 1.08Zm5.292-5.292c.6-.888 1.092-1.812 1.476-2.772.408-.984.612-1.908.612-2.772 0-.696-.108-1.2-.324-1.512-.192-.336-.444-.504-.756-.504-.48 0-.972.348-1.476 1.044-.504.696-.756 1.572-.756 2.628 0 .696.096 1.404.288 2.124.216.696.528 1.284.936 1.764Zm7.856 5.292c-1.032 0-1.764-.324-2.196-.972-.432-.624-.648-1.392-.648-2.304 0-.744.12-1.512.36-2.304.24-.792.552-1.536.936-2.232.408-.696.852-1.26 1.332-1.692.504-.432 1.008-.648 1.512-.648.12 0 .24.024.36.072.144.024.276.06.396.108-.216.192-.48.552-.792 1.08a13.571 13.571 0 0 0-.828 1.764 20.855 20.855 0 0 0-.684 1.944c-.168.648-.252 1.2-.252 1.656 0 .72.12 1.248.36 1.584.24.312.552.468.936.468.504 0 1.104-.264 1.8-.792.696-.552 1.38-1.248 2.052-2.088-.672-.552-1.2-1.272-1.584-2.16a7.493 7.493 0 0 1-.54-2.772c0-.792.132-1.536.396-2.232.288-.696.696-1.248 1.224-1.656.528-.432 1.164-.648 1.908-.648.984 0 1.644.264 1.98.792.336.528.504 1.188.504 1.98 0 .936-.228 1.98-.684 3.132a18.642 18.642 0 0 1-1.728 3.276c.432.24.888.36 1.368.36a4.56 4.56 0 0 0 1.296-.216c.48-.168.948-.444 1.404-.828.48-.384.864-.9 1.152-1.548l.432.36c-.48 1.128-1.164 1.932-2.052 2.412-.864.456-1.692.684-2.484.684-.312 0-.612-.024-.9-.072a4.823 4.823 0 0 1-.828-.288c-.816 1.08-1.716 1.98-2.7 2.7-.96.72-1.896 1.08-2.808 1.08Zm5.292-5.292c.6-.888 1.092-1.812 1.476-2.772.408-.984.612-1.908.612-2.772 0-.696-.108-1.2-.324-1.512-.192-.336-.444-.504-.756-.504-.48 0-.972.348-1.476 1.044-.504.696-.756 1.572-.756 2.628 0 .696.096 1.404.288 2.124.216.696.528 1.284.936 1.764Zm16.065 5.508a2.42 2.42 0 0 1-1.728-.684c-.48-.456-.864-1.032-1.152-1.728a13.377 13.377 0 0 1-.612-2.124c-.12-.744-.18-1.392-.18-1.944.264 0 .648-.06 1.152-.18a8.998 8.998 0 0 0 1.548-.612 4.543 4.543 0 0 0 1.332-1.08c.384-.456.576-.984.576-1.584 0-.504-.18-.9-.54-1.188a1.958 1.958 0 0 0-1.26-.432c-.744 0-1.44.264-2.088.792-.648.504-1.236 1.176-1.764 2.016-.504.816-.96 1.692-1.368 2.628a35.551 35.551 0 0 0-1.044 2.664c-.288.84-.528 1.536-.72 2.088-.144.432-.348.72-.612.864a1.52 1.52 0 0 1-.828.252c-.408 0-.708-.168-.9-.504-.168-.336-.276-.756-.324-1.26a35.684 35.684 0 0 1-.036-1.62c0-1.248.204-2.688.612-4.32a44.02 44.02 0 0 1 1.62-5.076 66.706 66.706 0 0 1 2.268-5.148 58.605 58.605 0 0 1 2.448-4.5c.816-1.344 1.572-2.412 2.268-3.204.696-.792 1.26-1.188 1.692-1.188.336 0 .6.228.792.684.216.456.324 1.008.324 1.656 0 .816-.18 1.74-.54 2.772-.36 1.008-.876 2.028-1.548 3.06a16.631 16.631 0 0 1-2.34 2.916 15.038 15.038 0 0 1-2.916 2.34c-.792 1.944-1.392 3.84-1.8 5.688-.384 1.824-.576 3.36-.576 4.608a70.6 70.6 0 0 1 1.368-3.168 27.985 27.985 0 0 1 1.872-3.312c.696-1.056 1.452-1.92 2.268-2.592.816-.672 1.668-1.008 2.556-1.008.888 0 1.644.312 2.268.936.624.624.936 1.38.936 2.268 0 .768-.204 1.428-.612 1.98-.384.528-.864.96-1.44 1.296a7.968 7.968 0 0 1-1.692.72c-.552.144-1.008.216-1.368.216.024.192.096.54.216 1.044s.288 1.032.504 1.584c.24.552.528 1.032.864 1.44.336.384.744.576 1.224.576.696 0 1.356-.264 1.98-.792.624-.528 1.212-1.224 1.764-2.088a20.512 20.512 0 0 0 1.584-2.988l.36.36a12.095 12.095 0 0 1-1.548 3.348c-.696 1.032-1.476 1.872-2.34 2.52-.84.672-1.68 1.008-2.52 1.008Zm-5.256-15.084a15.61 15.61 0 0 0 2.88-3.024c.84-1.128 1.488-2.208 1.944-3.24.456-1.056.684-1.884.684-2.484a.618.618 0 0 0-.036-.252c0-.048-.024-.072-.072-.072-.24 0-.66.42-1.26 1.26-.576.84-1.236 1.956-1.98 3.348a55.465 55.465 0 0 0-2.16 4.464Zm14.41 15.552c-1.128 0-2.028-.252-2.7-.756a3.862 3.862 0 0 1-1.368-1.8 5.778 5.778 0 0 1-.432-2.16c0-.72.096-1.272.288-1.656.192-.384.42-.672.684-.864.288-.192.552-.336.792-.432.264-.096.444-.192.54-.288.72-.792 1.38-1.62 1.98-2.484.6-.864 1.128-1.776 1.584-2.736v-.432c0-.888.144-1.512.432-1.872.312-.384.636-.576.972-.576.192 0 .336.048.432.144a.448.448 0 0 1 .144.324c0 .12-.036.312-.108.576-.072.264-.108.6-.108 1.008 0 .792.156 1.656.468 2.592.312.912.624 1.884.936 2.916.312 1.008.468 2.064.468 3.168 0 .312-.024.624-.072.936a4.59 4.59 0 0 1-.144.828c.84-.144 1.632-.516 2.376-1.116.744-.624 1.464-1.608 2.16-2.952l.324.36c-.456 1.32-1.14 2.328-2.052 3.024a6.716 6.716 0 0 1-2.988 1.26c-.384 1.032-.996 1.788-1.836 2.268-.816.48-1.74.72-2.772.72Zm.072-1.26c.288 0 .672-.096 1.152-.288.48-.192.852-.684 1.116-1.476a6.385 6.385 0 0 1-2.7-1.188c-.768-.6-1.344-1.2-1.728-1.8-.528.024-.792.444-.792 1.26 0 .864.252 1.668.756 2.412.528.72 1.26 1.08 2.196 1.08Zm2.448-2.34c.048-.24.084-.492.108-.756.024-.264.036-.576.036-.936 0-1.128-.144-2.244-.432-3.348a87.454 87.454 0 0 1-.684-3.168 33.442 33.442 0 0 1-1.764 2.628c-.6.816-1.176 1.5-1.728 2.052.36.768.912 1.488 1.656 2.16.768.672 1.704 1.128 2.808 1.368Z" fill="#000"/></svg>